<svg id="Layer_1" data-name="Layer 1" xmlns="http://www.w3.org/2000/svg" viewBox="0 0 111.87 122.88"><path d="M56.75 113.57v-38.5a9.34 9.34 0 019.31-9.31h36.5a9.34 9.34 0 019.31 9.31v38.5a9.34 9.34 0 01-9.31 9.31h-36.5a9.34 9.34 0 01-9.31-9.31zm2.74-102.1l19.59 18.35H59.49V11.47zM20.72 69.38a2.12 2.12 0 00-2 2.21 2.08 2.08 0 002 2.21H45.3v-4.42zm0 15.83a2.12 2.12 0 00-2 2.21 2.08 2.08 0 002 2.21H45.3v-4.42zm0-47.5a2.12 2.12 0 00-2 2.21 2.09 2.09 0 002 2.21h22.73a2.12 2.12 0 002-2.21 2.1 2.1 0 00-2-2.21zm0-15.83a2.12 2.12 0 00-2 2.21 2.08 2.08 0 002 2.21h12.5a2.12 2.12 0 002-2.21 2.09 2.09 0 00-2-2.21zm0 31.67a2.12 2.12 0 00-2 2.21 2.1 2.1 0 002 2.21h38.44a2.13 2.13 0 002-2.21 2.09 2.09 0 00-2-2.21zM90 32.45a3.26 3.26 0 00-2.37-3.14L58.74 1.2A3.21 3.21 0 0056.23 0H5.87A5.86 5.86 0 000 5.86v100.39a5.84 5.84 0 001.72 4.15 5.91 5.91 0 004.15 1.71h39.52v-6.55H6.55v-99h46.39v26.52a3.29 3.29 0 003.29 3.29h27.2v21.45H90V32.45zM70 93.07h12V89a8.63 8.63 0 0117.26 0v4.07h-3.67V89a4.94 4.94 0 00-8.42-3.48A4.87 4.87 0 0085.74 89v4.06h2.37a.66.66 0 01.66.65v13.84a.67.67 0 01-.66.66H70a.67.67 0 01-.66-.66V93.72a.66.66 0 01.66-.65zm9.31 7.57l1 4.79h-2.82l.83-4.85a1.94 1.94 0 111 0z" fill-rule="evenodd"/></svg>