<svg version="1.1" id="Capa_1" xmlns="http://www.w3.org/2000/svg" x="0" y="0" viewBox="0 0 297 297" xml:space="preserve"><path d="M243.841 100.308c4.258-6.164 12.225-18.258 17.723-30.012 4.984-10.655 10.557-25.913 1.436-35.361-2.384-2.468-6.797-5.408-14.28-5.408-1.476 0-3.016.107-4.639.326-3.16-6.912-7.601-11.111-13.264-12.522a16.48 16.48 0 00-3.975-.484c-4.506 0-9.016 1.747-13.639 5.305-4.852-3.479-9.463-5.187-13.948-5.187-1.759 0-3.48.269-5.124.802a16.8 16.8 0 00-2.82 1.217c-1.302-3.924-3.594-7.331-7.36-9.685-5.198-3.247-11.811-3.446-19.584-.354C159.628 3.001 154.304 0 148.464 0c-5.839 0-11.165 3.001-15.902 8.943-7.773-3.092-14.387-2.894-19.585.355-3.838 2.398-6.148 5.89-7.438 9.907a16.573 16.573 0 00-7.564-1.804c-4.388 0-8.925 1.627-13.728 4.945-4.663-3.722-9.238-5.548-13.845-5.548-1.242 0-2.48.141-3.688.418-5.687 1.315-10.198 5.438-13.478 12.29a34.032 34.032 0 00-5.131-.411c-7.195 0-11.516 2.81-13.872 5.166-9.285 9.284-3.98 24.637.816 35.378 5.293 11.849 13.046 24.079 17.196 30.315 4.343 6.524 10.268 11.415 16.912 14.198H50.653c-4.434 0-8.313 2.959-9.508 7.229s.611 8.818 4.401 11.118c.19.115 19.169 11.789 33.998 34.352 19.489 29.65 23.074 63.574 10.655 100.83a9.884 9.884 0 009.376 13.008H106v6.424c0 5.458 4.426 9.884 9.884 9.884s9.883-4.426 9.883-9.884v-6.424h12.849v6.424c0 5.458 4.426 9.884 9.884 9.884s9.884-4.426 9.884-9.884v-6.424h12.849v6.424c0 5.458 4.425 9.884 9.883 9.884 5.459 0 9.884-4.426 9.884-9.884v-6.424h6.444c5.459 0 9.884-4.426 9.884-9.884 0-1.315-.257-2.57-.723-3.718-12.184-37.022-8.534-70.744 10.852-100.237 14.829-22.564 33.808-34.237 33.977-34.34a9.88 9.88 0 004.439-11.113 9.882 9.882 0 00-9.524-7.246h-19.535c6.644-2.679 12.613-7.458 17.027-13.843zM123.999 26.867c1.366.425 3.596 1.348 6.866 3.363a9.887 9.887 0 0013.96-3.87c1.537-2.965 2.788-4.693 3.639-5.671.852.978 2.102 2.706 3.639 5.671a9.881 9.881 0 0013.959 3.87c3.269-2.014 5.498-2.938 6.866-3.362.69 5.44-1.376 19.978-10.248 43.524-2.031 5.389-6.832 11.146-14.216 11.146-7.383 0-12.184-5.758-14.215-11.146-8.874-23.546-10.939-38.085-10.25-43.525zm-75.074 22.03c1.376.104 3.764.493 7.445 1.734a9.88 9.88 0 0012.73-6.909c.83-3.234 1.662-5.2 2.271-6.345 1.05.763 2.66 2.165 4.823 4.709a9.882 9.882 0 007.099 3.468c2.759.14 5.417-.909 7.372-2.839 2.743-2.707 4.7-4.107 5.932-4.825 1.896 5.141 3.152 19.772-.194 44.719-.767 5.707-4.148 12.396-11.345 14.059a13.402 13.402 0 01-3.02.351c-5.012-.001-9.997-2.997-13.337-8.016-13.947-20.952-19.228-34.654-19.776-40.106zm67.068 36.341c.213-1.582.453-3.496.695-5.631 4.438 9.953 12.441 17.18 21.928 20.167v14.38H94.929c11.23-4.762 19.274-15.573 21.064-28.916zm-20.424 70.011c-5.647-8.472-11.746-15.578-17.433-21.327h130.122l-91.74 104.846c3.432-36.78-8.543-64.913-20.949-83.519zm88.698 105.676h-60.871l61.496-70.281c-5.6 19.239-7.434 42.754-.625 70.281zm-25.883-146.771v-14.4c9.223-2.927 17.038-9.865 21.526-19.42.155 1.535.309 2.939.45 4.145 1.596 13.743 9.854 24.925 21.504 29.676h-43.48zm55.945-17.303a13.44 13.44 0 01-3.239-.403c-7.168-1.789-10.43-8.535-11.096-14.256-2.917-24.999-1.401-39.608.585-44.717 1.22.738 3.152 2.173 5.845 4.926a9.906 9.906 0 007.322 2.973 9.881 9.881 0 007.159-3.345c2.211-2.507 3.842-3.88 4.905-4.623.589 1.154 1.384 3.134 2.156 6.383a9.882 9.882 0 0012.607 7.131c3.627-1.153 6.005-1.524 7.48-1.607-.646 5.441-6.166 19.05-20.478 39.757-3.365 4.872-8.316 7.781-13.246 7.781z"/></svg>