<svg width="25" height="25" xmlns="http://www.w3.org/2000/svg"><path d="M8.491 19.404c0 .098-.112.176-.254.176-.16.015-.273-.063-.273-.176 0-.097.112-.175.254-.175.146-.015.273.063.273.175zm-1.518-.22c-.035.098.063.21.21.24.127.049.273 0 .302-.098.03-.098-.063-.21-.21-.254-.127-.034-.268.015-.302.113zm2.158-.082c-.142.034-.24.127-.225.239.015.098.142.161.288.127.142-.034.24-.127.225-.225-.015-.093-.147-.156-.288-.141zM12.344.39C5.57.39.39 5.532.39 12.305c0 5.415 3.408 10.049 8.276 11.68.625.112.845-.274.845-.591 0-.303-.015-1.973-.015-2.998 0 0-3.418.732-4.136-1.456 0 0-.556-1.42-1.357-1.787 0 0-1.118-.766.078-.752 0 0 1.216.098 1.885 1.26 1.07 1.885 2.861 1.343 3.56 1.02.112-.78.43-1.323.78-1.645-2.729-.303-5.483-.698-5.483-5.395 0-1.343.371-2.017 1.153-2.876-.127-.318-.542-1.626.127-3.316 1.02-.317 3.369 1.319 3.369 1.319a11.472 11.472 0 013.066-.415c1.04 0 2.09.141 3.066.415 0 0 2.35-1.641 3.37-1.319.669 1.695.253 2.998.127 3.316.78.864 1.26 1.538 1.26 2.876 0 4.711-2.877 5.088-5.606 5.395.45.386.83 1.118.83 2.266 0 1.645-.015 3.681-.015 4.082 0 .317.225.703.845.59 4.883-1.62 8.193-6.254 8.193-11.67C24.61 5.533 19.116.392 12.344.392zM5.137 17.23c-.064.05-.05.162.034.254.078.079.19.113.254.05.063-.05.049-.162-.034-.255-.079-.078-.19-.112-.254-.049zm-.528-.395c-.034.063.015.142.113.19.078.05.175.035.21-.034.034-.063-.015-.141-.113-.19-.097-.03-.175-.015-.21.034zm1.582 1.738c-.078.064-.048.21.064.303.112.112.254.127.317.049.064-.064.034-.21-.063-.303-.108-.112-.254-.127-.318-.049zm-.556-.718c-.078.05-.078.176 0 .288.078.113.21.162.273.113.078-.064.078-.19 0-.303-.068-.112-.195-.161-.273-.098z"/></svg>