<svg width="1280" height="826" xmlns="http://www.w3.org/2000/svg"><g clip-path="url(#clip0_535_2)"><path d="M1190.2 2c12.8 2.8 23.5 7.7 30.1 13.9 4.1 3.8 13.7 19.6 13.7 22.6V41h21.8c15.6 0 22.1.3 23 1.2 1.7 1.7 1.7 77.9 0 79.6-.9.9-7.4 1.2-23 1.2H1234v36.6c0 27.2.3 37.1 1.2 38.7 1.7 2.9 1.7 21.5 0 24.4-.7 1.3-1.2 5.8-1.2 10.7v8.6h-94.9l-.3 7.1-.3 7.2-98.5-.1c-54.2-.1-120.1.2-146.5.7-53.2.9-57.4 1.4-79.2 8.6-42.8 14.3-72.5 48-81.7 92.8-4.4 21.4-4.8 50.3-1 71.3.6 3.1.5 3.1-8.8 7.2-35.8 15.7-79.8 25.5-131.3 29.3-20.5 1.5-69.2.6-83-1.5-5.5-.8-15.6-2.9-22.5-4.6-38.1-9.3-64.4-5.2-82.9 12.9-10.4 10.2-16.1 21-21.2 40.1-1.1 4.1-7.7 27.7-14.5 52.5-26.2 94.3-30.2 114.3-31.8 161-.7 19.7.7 54.7 2.4 62.1.9 3.5 1 8.9.5 17.8-.6 11.3-1 13-3.1 15.5-1.3 1.6-3.8 3.1-5.5 3.5-2.4.5-213.3-18-238.5-20.9-4.2-.5-5.3-1.1-6.3-3.1-.6-1.4-1.1-3.4-1.1-4.4 0-1.3-.7-2-2-2-1.6 0-2 .7-2 3.3 0 4.4-5.3 14.9-9.2 18.2-8.3 7-20.6 9.4-30.6 6.1-15.3-5.1-23.8-23.2-17.7-37.8.6-1.5-.2-1.7-7.2-2l-7.8-.3-1.7-7c-4-15.9-5.2-28.2-5.2-55-.1-26.9 1-40.8 4.5-57C8.4 647.8 46.2 550.1 92.2 438c24.8-60.3 27.2-68.2 27.2-89.5-.1-13.9-1.7-21.5-7-31.5-12.3-23.5-37.8-39.4-84.9-53-9.3-2.8-18.1-5.8-19.4-6.8-8.6-6.4-10.5-21-3.7-28.9 2.2-2.5 2.8-2.7 12.7-3 6.2-.1 13.1-1 17-2.1 19.7-5.5 36.6-22.4 45.6-45.7 1.5-3.8 3.3-7.5 3.9-8 .6-.6 1.9-3.9 2.9-7.5 2.2-8.5 9.7-27.4 14.7-37.4l4-7.9-3-6.6C100.5 106.5 96.9 97 94 89c-2.9-8-6.1-16.3-7.2-18.4-6.1-11.9-1.6-27.1 9.6-32.8 6.4-3.3 12.5-2.8 23.1 1.6 18.7 7.9 24.7 8.3 36.5 2l7.1-3.7 4.8 2.2 4.8 2.3 8.5-5.6 8.6-5.6h16.1c14.3 0 16.1-.2 16.9-1.8.5-.9 2.4-6.8 4.2-13L230.3 5h20.2l4.5 12.8 4.5 12.7 147.7.3L555 31v10h590.7l2.5-3.8c1.4-2 3.5-5.6 4.7-8l2.1-4.2h12.1l5.9-12.5c3.2-6.9 6.5-12.5 7.2-12.4.7 0 5.2.9 10 1.9zM102.1 51.5c-5.9 5-6.2 13.2-.7 18.4 7.6 7.2 19.6 2 19.6-8.5 0-2.5-.7-5.6-1.6-7-3.8-5.7-12.2-7.1-17.3-2.9zm461.6 239.2c-5.8 21.5-7.4 46.9-4.1 63.1 3.1 15.5 10.8 30 22.6 42.6 9.9 10.6 19.6 17.9 37.7 28.4 1.1.6 1 1.5-.8 5-1.2 2.3-2.8 4.2-3.5 4.2-2.2 0-18.5-5.9-24.1-8.7-20.8-10.4-34.9-25.6-49.6-53.5-7.7-14.6-10.5-18.2-15.7-20.1l-3.5-1.2.7-21 .6-21-5.5-2.4c-6.5-2.8-12.6-9.1-15.1-15.8-1.6-4.2-1.9-4.4-4.9-3.9-11.4 2.2-32.9 11.4-44.5 19.1-7.6 5-17 14.7-23.2 23.8-13.5 19.9-16.3 42.3-7.7 62.3 5 11.8 17.8 27.1 28.3 33.8C483.7 446 542 458.4 591 455c44.9-3.2 80.1-16.1 103.3-37.9 17.2-16.2 24.9-32.6 24.8-53 0-17.7-6.9-36-19.5-51.6-15.5-19.3-32.3-27-67.1-30.9-1.7-.1-17.2-.4-34.6-.5l-31.6-.1-2.6 9.7zm-527.4 496c-2.4 3.1-2.8 4.6-2.8 9.8 0 5.2.4 6.7 2.8 9.8 3.8 5.1 8.1 7.1 14.8 7.1 7.2.1 13.2-3.6 16-9.7 2.3-5.1 2.4-8.6.4-13.4-3-7.1-3.5-7.3-16.6-7.3H39.1l-2.8 3.7z"/></g><defs><clipPath id="clip0_535_2"><path transform="matrix(-1 0 0 1 1280 0)" d="M0 0h1280v826H0z"/></clipPath></defs></svg>