<svg width="455" height="333" xmlns="http://www.w3.org/2000/svg"><path d="M34.052 5.948C15.249 5.948 0 21.196 0 39.999c0 18.803 15.249 34.052 34.052 34.052 18.803 0 34.052-15.25 34.052-34.052 0-18.803-15.249-34.051-34.052-34.051zM145.499 80h268.604c22.092 0 40-17.908 40-40s-17.908-40-40-40H145.499c-22.092 0-40 17.908-40 40s17.908 40 40 40zM34.052 132.008C15.249 132.008 0 147.256 0 166.059c0 18.803 15.249 34.052 34.052 34.052 18.803 0 34.052-15.249 34.052-34.052 0-18.803-15.249-34.051-34.052-34.051zm380.052-5.948H145.499c-22.092 0-40 17.908-40 40s17.908 40 40 40h268.604c22.092 0 40-17.908 40-40s-17.908-40-39.999-40zM34.052 258.068C15.249 258.068 0 273.316 0 292.119c0 18.803 15.249 34.052 34.052 34.052 18.803 0 34.052-15.249 34.052-34.052 0-18.803-15.249-34.051-34.052-34.051zm380.052-5.949H145.499c-22.092 0-40 17.908-40 40s17.908 40 40 40h268.604c22.092 0 40-17.908 40-40s-17.908-40-39.999-40z"/></svg>