<svg width="30" height="31" xmlns="http://www.w3.org/2000/svg"><g clip-path="url(#clip0_256_207)"><path d="M29.143 21.45l-6.563-2.812a1.407 1.407 0 00-1.64.404l-2.906 3.551A21.718 21.718 0 017.65 12.211l3.551-2.906a1.402 1.402 0 00.404-1.64L8.794 1.101A1.416 1.416 0 007.183.287L1.089 1.693a1.406 1.406 0 00-1.09 1.37c0 15.03 12.182 27.188 27.187 27.188a1.406 1.406 0 001.372-1.09l1.406-6.093a1.424 1.424 0 00-.821-1.617z"/></g><defs><clipPath id="clip0_256_207"><path transform="translate(-.001 .252)" d="M0 0h30v30H0z"/></clipPath></defs></svg>