<svg width="30" height="31" xmlns="http://www.w3.org/2000/svg"><g clip-path="url(#clip0_249_170)"><path d="M15.408.25C7.184.251 2.813 5.52 2.813 11.265c0 2.664 1.488 5.988 3.872 7.041.68.306.59-.067 1.175-2.305a.531.531 0 00-.128-.521c-3.407-3.941-.665-12.044 7.19-12.044 11.366 0 9.242 15.728 1.977 15.728-1.873 0-3.268-1.47-2.827-3.289.536-2.166 1.583-4.495 1.583-6.056 0-3.935-5.862-3.352-5.862 1.862 0 1.612.57 2.699.57 2.699S8.476 22 8.126 23.424c-.592 2.41.08 6.311.139 6.647.036.185.244.244.36.091.186-.243 2.466-3.496 3.105-5.847.232-.856 1.186-4.331 1.186-4.331.629 1.135 2.441 2.085 4.373 2.085 5.745 0 9.897-5.05 9.897-11.316C27.166 4.744 22.025.25 15.408.25z"/></g><defs><clipPath id="clip0_249_170"><path transform="translate(0 .25)" d="M0 0h30v30H0z"/></clipPath></defs></svg>