<svg width="30" height="19" xmlns="http://www.w3.org/2000/svg"><path d="M24.894 10.927c-.485-.613-.346-.885 0-1.433.006-.006 4.01-5.539 4.422-7.415l.003-.001c.205-.684 0-1.186-.991-1.186h-3.28c-.835 0-1.22.43-1.427.913 0 0-1.67 3.998-4.032 6.59-.763.748-1.115.988-1.531.988-.206 0-.524-.24-.524-.924V2.078c0-.82-.234-1.186-.925-1.186H11.45c-.524 0-.835.382-.835.738 0 .778 1.181.957 1.304 3.144V9.52c0 1.04-.189 1.232-.607 1.232-1.116 0-3.822-4.014-5.426-8.608-.323-.891-.64-1.251-1.48-1.251H1.124C.189.893 0 1.324 0 1.807c0 .852 1.115 5.09 5.185 10.69 2.713 3.823 6.532 5.895 10.008 5.895 2.088 0 2.343-.46 2.343-1.252 0-3.652-.189-3.997.858-3.997.485 0 1.32.24 3.27 2.084 2.228 2.186 2.595 3.165 3.842 3.165h3.28c.935 0 1.409-.46 1.136-1.368-.623-1.909-4.838-5.835-5.028-6.097z"/></svg>