<svg version="1.1" id="Capa_1" xmlns="http://www.w3.org/2000/svg" x="0" y="0" viewBox="0 0 297 297" xml:space="preserve"><path d="M108.817 20.752C100.762 9.379 81.164 1.934 56.405 1.934 23.722 1.934 0 14.897 0 32.757v230.612c0 18.07 24.249 31.697 56.405 31.697 24.426 0 44.275-7.868 52.412-19.569V20.752zM63.144 245.649h-1.248v1.248a6.988 6.988 0 11-13.976 0v-1.248h-1.248a6.988 6.988 0 110-13.976h1.248v-1.248a6.988 6.988 0 1113.976 0v1.248h1.248a6.988 6.988 0 110 13.976zm0-61.813h-1.248v1.248a6.988 6.988 0 11-13.976 0v-1.248h-1.248a6.988 6.988 0 110-13.976h1.248v-1.248a6.988 6.988 0 1113.976 0v1.248h1.248a6.988 6.988 0 110 13.976zm0-61.812h-1.248v1.248a6.988 6.988 0 11-13.976 0v-1.248h-1.248a6.988 6.988 0 110-13.976h1.248V106.8a6.988 6.988 0 1113.976 0v1.248h1.248a6.988 6.988 0 110 13.976zm0-61.813h-1.248v1.248a6.988 6.988 0 11-13.976 0v-1.248h-1.248a6.988 6.988 0 110-13.976h1.248v-1.248a6.988 6.988 0 1113.976 0v1.248h1.248a6.988 6.988 0 110 13.976zm223.873-37.437H122.793v250.578h164.224c5.513 0 9.983-4.47 9.983-9.983V32.757c0-5.513-4.47-9.983-9.983-9.983zm-98.556 189.93h-1.248v1.248a6.988 6.988 0 11-13.976 0v-1.248h-1.248a6.988 6.988 0 110-13.976h1.248v-1.248a6.988 6.988 0 1113.976 0v1.248h1.248a6.988 6.988 0 110 13.976zm0-65.889h-1.248v1.248a6.988 6.988 0 11-13.976 0v-1.248h-1.248a6.988 6.988 0 110-13.976h1.248v-1.248a6.988 6.988 0 1113.976 0v1.248h1.248a6.988 6.988 0 110 13.976zm0-65.889h-1.248v1.248a6.988 6.988 0 11-13.976 0v-1.248h-1.248a6.988 6.988 0 110-13.976h1.248v-1.248a6.988 6.988 0 1113.976 0v1.248h1.248a6.988 6.988 0 110 13.976zm57.652 148.251h-1.248v1.248a6.988 6.988 0 11-13.976 0v-1.248h-1.248a6.988 6.988 0 110-13.976h1.248v-1.248a6.988 6.988 0 1113.976 0v1.248h1.248a6.988 6.988 0 110 13.976zm0-65.889h-1.248v1.248a6.988 6.988 0 11-13.976 0v-1.248h-1.248a6.988 6.988 0 110-13.976h1.248v-1.248a6.988 6.988 0 1113.976 0v1.248h1.248a6.988 6.988 0 110 13.976zm0-65.889h-1.248v1.248a6.988 6.988 0 11-13.976 0v-1.248h-1.248a6.988 6.988 0 110-13.976h1.248v-1.248a6.988 6.988 0 1113.976 0v1.248h1.248a6.988 6.988 0 110 13.976z"/></svg>