<?xml version="1.0" standalone="no"?>
<!DOCTYPE svg PUBLIC "-//W3C//DTD SVG 20010904//EN"
 "http://www.w3.org/TR/2001/REC-SVG-20010904/DTD/svg10.dtd">
<svg version="1.0" xmlns="http://www.w3.org/2000/svg"
 width="960.000000pt" height="960.000000pt" viewBox="0 0 960.000000 960.000000"
 preserveAspectRatio="xMidYMid meet">
<metadata>
Created by potrace 1.14, written by Peter Selinger 2001-2017
</metadata>
<g transform="translate(0.000000,960.000000) scale(0.100000,-0.100000)"
fill="#000000" stroke="none">
<path d="M1205 9590 c-4 -6 -10 -8 -14 -6 -13 9 -105 -45 -136 -80 -53 -58
-56 -63 -76 -121 -19 -55 -19 -101 -19 -1840 l0 -1783 641 -320 c473 -237 639
-325 635 -335 -3 -8 -1 -17 5 -20 6 -4 6 -13 0 -23 -5 -9 -5 -26 0 -39 5 -13
4 -25 -1 -28 -6 -3 -5 -16 0 -31 6 -14 6 -23 2 -20 -9 5 -6 -69 3 -84 3 -6 3
-10 -2 -10 -4 0 -8 -18 -8 -39 0 -22 4 -37 9 -33 5 3 6 -1 1 -8 -5 -7 -9 -99
-11 -204 -4 -283 -12 -492 -29 -771 -3 -44 -7 -115 -10 -158 -3 -43 -7 -100
-10 -125 -3 -26 -8 -80 -11 -121 -3 -40 -7 -92 -9 -115 -12 -114 -17 -164 -21
-196 -2 -19 -6 -57 -9 -85 -3 -27 -8 -66 -10 -85 -3 -19 -7 -53 -9 -75 -3 -22
-7 -56 -10 -75 -5 -37 -16 -118 -21 -160 -2 -14 -5 -38 -8 -55 -3 -16 -8 -52
-12 -80 -3 -27 -8 -63 -11 -80 -8 -42 -14 -85 -20 -120 -4 -31 -34 -208 -39
-237 -2 -9 -7 -36 -10 -61 l-7 -45 61 0 c34 1 63 -1 66 -4 2 -2 30 -1 60 2 31
3 58 3 60 0 2 -3 29 -3 60 0 31 3 58 3 60 0 2 -3 29 -3 60 0 31 3 58 3 60 0 2
-3 29 -3 60 0 31 3 58 3 60 0 2 -3 28 -4 57 0 29 3 67 3 83 0 17 -3 44 -3 60
0 17 3 44 3 60 0 17 -3 44 -3 60 0 17 3 44 3 60 0 17 -3 44 -3 60 0 17 3 44 3
60 0 17 -3 44 -3 60 0 17 3 44 3 60 0 17 -3 44 -3 60 0 17 3 44 3 60 0 17 -3
44 -3 60 0 17 3 44 3 60 0 17 -3 44 -3 60 0 17 3 44 3 60 0 17 -3 44 -3 60 0
17 3 44 3 60 0 17 -3 44 -3 60 0 17 3 44 3 60 0 17 -3 44 -3 60 0 17 3 44 3
60 0 17 -3 44 -3 60 0 17 3 44 3 60 0 17 -3 44 -3 60 0 17 3 44 3 60 0 17 -3
44 -3 60 0 17 3 44 3 60 0 17 -3 44 -3 60 0 17 3 44 3 60 0 17 -3 44 -3 60 0
17 3 44 3 60 0 17 -3 44 -3 60 0 17 3 44 3 60 0 17 -3 44 -3 60 0 17 3 44 3
60 0 17 -3 44 -3 60 0 17 3 44 3 60 0 17 -3 48 -3 71 0 22 4 48 4 57 1 9 -3
49 -4 89 -1 40 3 100 3 133 0 33 -3 88 -3 123 0 34 3 62 3 62 0 0 -3 27 -3 61
0 33 3 62 3 64 0 2 -3 29 -3 60 0 31 3 58 3 60 0 2 -3 29 -3 60 0 31 3 58 3
60 0 2 -3 29 -3 60 0 31 3 58 3 60 0 2 -3 29 -3 60 0 31 3 58 3 60 0 2 -3 29
-3 60 0 31 3 58 3 60 0 2 -3 29 -3 60 0 31 3 58 3 60 0 2 -3 29 -3 60 0 31 3
58 3 60 0 2 -3 29 -3 60 0 31 3 58 3 60 0 2 -3 29 -3 60 0 31 3 58 3 60 0 2
-3 29 -3 60 0 31 3 58 3 60 0 2 -3 29 -3 60 0 31 3 58 3 60 0 2 -3 29 -3 60 0
31 3 58 3 60 0 2 -3 29 -3 60 0 30 3 57 4 60 2 5 -5 135 -5 140 0 3 2 30 1 60
-2 31 -3 58 -3 60 0 2 3 28 4 57 0 30 -3 65 -3 79 0 13 4 41 3 61 0 20 -4 42
-4 48 0 11 7 8 56 -7 125 -2 11 -6 34 -9 50 -2 17 -7 41 -11 55 -3 14 -7 39
-8 55 -1 17 -7 57 -13 90 -13 72 -22 128 -28 175 -2 19 -6 50 -9 68 -6 33 -10
62 -20 142 -3 25 -7 56 -10 70 -2 14 -7 50 -10 80 -3 30 -7 66 -10 79 -2 14
-7 50 -10 80 -3 31 -7 70 -9 86 -2 17 -7 64 -11 105 -4 41 -9 78 -12 83 -2 4
2 7 9 7 8 0 9 3 3 8 -12 9 -12 10 -20 103 -13 170 -15 198 -20 279 -2 47 -5
85 -5 85 -2 0 -8 99 -15 225 -11 236 -17 391 -19 588 -2 111 -5 205 -8 208 -3
3 -2 20 2 38 4 19 4 40 0 46 -4 7 -4 26 0 41 5 17 5 31 -1 35 -5 3 -6 10 -2
17 9 15 10 57 1 63 -4 3 -3 16 2 29 5 13 6 27 1 29 -5 3 -6 17 -3 31 4 23 73
61 643 346 l639 319 -2 1803 -3 1802 -22 46 c-33 67 -124 156 -166 163 -7 1
-19 6 -27 11 -9 6 -257 11 -639 13 -598 3 -626 2 -682 -17 -32 -11 -65 -25
-74 -33 -94 -79 -132 -142 -141 -235 -3 -32 -7 -63 -9 -70 -2 -7 0 -15 5 -18
6 -3 6 -15 0 -30 -6 -15 -6 -27 0 -30 6 -3 6 -15 0 -30 -6 -15 -6 -27 0 -30 5
-3 6 -15 1 -28 -5 -12 -5 -32 0 -44 5 -13 4 -25 -2 -28 -5 -4 -6 -13 0 -22 5
-9 5 -29 1 -44 -5 -15 -6 -30 -2 -33 7 -7 9 -66 2 -66 -7 0 -4 -69 3 -76 3 -3
2 -16 -3 -29 -5 -13 -6 -26 -3 -29 8 -8 7 -102 -1 -115 -4 -5 -2 -12 3 -16 7
-4 7 -15 1 -30 -5 -14 -6 -25 -1 -25 4 0 5 -20 1 -45 -4 -25 -3 -48 1 -51 5
-2 4 -16 -1 -29 -6 -16 -6 -25 0 -25 5 0 6 -9 1 -22 -8 -23 -47 -43 -56 -28
-3 6 -15 6 -29 0 -13 -5 -27 -6 -30 -3 -9 9 -49 10 -73 1 -12 -4 -25 -3 -28 2
-3 5 -15 6 -29 0 -12 -4 -29 -5 -36 0 -7 5 -23 5 -35 0 -11 -4 -28 -4 -37 1
-10 6 -19 6 -23 0 -3 -7 -15 -7 -29 -1 -13 5 -27 6 -30 3 -8 -8 -102 -7 -115
1 -5 4 -12 2 -16 -3 -3 -7 -15 -7 -30 -1 -15 6 -27 6 -30 0 -3 -6 -15 -6 -30
0 -15 6 -27 6 -30 0 -3 -6 -15 -6 -30 0 -15 6 -27 6 -30 0 -3 -5 -16 -6 -28
-2 -12 5 -33 7 -47 5 -14 -2 -31 -3 -37 -3 -7 0 -20 0 -28 0 -8 0 -22 0 -30 0
-42 0 -47 3 -43 32 3 15 2 28 -1 28 -3 0 -6 14 -6 30 0 17 2 30 5 30 7 0 4 69
-3 76 -3 3 -2 16 3 29 5 13 6 26 3 29 -8 8 -7 102 1 115 4 5 2 12 -3 16 -7 4
-7 15 -1 30 5 14 6 25 2 25 -5 0 -5 24 -2 54 3 29 3 65 -1 80 -4 14 -4 26 1
26 4 0 4 16 0 35 -4 19 -4 35 1 35 5 0 4 11 -1 25 -6 15 -6 27 0 30 5 3 6 15
1 27 -4 12 -5 39 -1 60 4 22 3 38 -2 38 -5 0 -6 5 -3 11 8 12 8 111 0 148 -22
112 -81 190 -183 242 l-47 24 -885 0 -885 0 -49 -24 c-61 -30 -125 -93 -153
-151 -22 -46 -46 -180 -32 -180 4 0 4 -13 -1 -30 -5 -16 -6 -30 -2 -30 8 0 7
-84 -1 -97 -3 -5 -2 -15 3 -23 4 -7 4 -24 -1 -37 -5 -12 -5 -23 0 -23 4 0 5
-20 1 -45 -4 -25 -5 -47 -2 -50 7 -6 8 -65 2 -65 -7 0 -4 -69 3 -76 3 -3 2
-16 -3 -29 -5 -13 -6 -26 -3 -29 8 -8 7 -102 -1 -115 -4 -5 -2 -12 3 -16 7 -4
7 -15 1 -30 -5 -14 -6 -25 -1 -25 4 0 5 -20 1 -45 -4 -25 -3 -48 1 -51 5 -2 4
-16 -1 -29 -6 -16 -6 -25 0 -25 5 0 6 -9 1 -22 -8 -23 -47 -43 -56 -28 -3 6
-15 6 -29 0 -13 -5 -27 -6 -30 -3 -9 9 -49 10 -73 1 -12 -4 -25 -3 -28 2 -3 5
-15 6 -29 0 -12 -4 -29 -5 -36 0 -7 5 -23 5 -35 0 -11 -4 -28 -4 -37 1 -10 6
-19 6 -23 0 -3 -7 -15 -7 -30 -1 -15 6 -27 6 -30 0 -3 -5 -15 -6 -28 -1 -12 5
-32 5 -44 0 -13 -5 -25 -4 -28 1 -3 5 -15 6 -29 0 -12 -4 -29 -5 -36 0 -7 5
-23 5 -35 0 -11 -4 -28 -4 -37 1 -10 6 -19 6 -23 0 -3 -7 -15 -7 -30 -1 -15 6
-27 6 -30 0 -3 -5 -12 -7 -19 -4 -7 3 -51 6 -97 7 l-84 2 -1 60 c0 34 -3 65
-6 71 -4 5 -4 15 0 21 6 9 7 459 2 473 -1 3 -1 10 0 15 7 28 4 355 -3 355 -5
0 -6 3 -3 8 8 13 -32 112 -59 148 -36 47 -108 94 -169 110 -41 11 -174 14
-663 14 -392 0 -614 -4 -618 -10z m3730 -3845 c17 -4 37 -8 45 -10 8 -2 16 -4
18 -5 1 -2 5 -3 10 -4 4 -1 24 -10 46 -19 21 -9 40 -17 42 -17 2 0 28 -16 57
-36 63 -44 157 -134 157 -151 0 -7 4 -13 9 -13 17 0 88 -153 108 -235 2 -11 6
-58 8 -104 2 -46 6 -86 9 -88 3 -3 1 -15 -4 -28 -5 -13 -6 -26 -3 -29 7 -7 7
-381 0 -393 -3 -5 -2 -15 3 -23 5 -8 5 -21 0 -30 -5 -9 -5 -22 -1 -29 5 -7 5
-27 1 -45 -4 -18 -3 -42 1 -54 5 -12 4 -24 -1 -27 -6 -4 -7 -13 -1 -24 5 -9 6
-23 1 -31 -4 -7 -6 -19 -3 -26 6 -17 9 -284 3 -284 -7 0 -4 -69 3 -76 3 -3 1
-19 -3 -35 -5 -16 -5 -29 -1 -29 4 0 6 -13 3 -29 -5 -34 -21 -39 -93 -31 -26
4 -54 3 -63 0 -9 -3 -40 -3 -69 0 -29 3 -85 3 -125 0 -40 -3 -80 -2 -89 1 -9
3 -35 3 -57 -1 -23 -3 -54 -3 -71 0 -16 3 -48 3 -71 0 -22 -4 -49 -3 -59 0
-10 3 -37 3 -60 0 -23 -3 -50 -4 -59 0 -10 3 -42 3 -72 0 -31 -3 -57 -3 -59 0
-2 3 -29 3 -60 0 -31 -3 -58 -3 -60 0 -2 3 -29 3 -60 0 -30 -3 -58 -4 -61 -1
-2 3 -24 4 -49 2 -41 -2 -43 -1 -41 24 2 14 0 28 -5 31 -5 2 -4 15 1 28 5 13
6 27 3 30 -3 3 -5 92 -4 198 1 106 1 199 1 206 0 16 0 39 0 55 0 6 0 33 -1 59
-1 27 0 51 4 54 3 3 2 17 -3 30 -6 14 -6 26 1 29 6 4 6 13 0 23 -5 9 -5 26 -1
37 5 12 5 28 0 35 -5 7 -4 24 0 36 6 14 5 26 0 29 -5 3 -6 13 -3 21 9 25 10
57 1 81 -4 12 -3 25 2 28 6 3 6 15 0 30 -6 15 -6 27 0 30 6 3 6 15 0 30 -6 15
-6 27 0 30 5 3 6 15 0 29 -4 12 -4 29 0 36 5 8 5 21 0 31 -5 9 -7 18 -5 21 3
2 7 33 9 68 5 61 29 159 46 190 5 8 21 40 37 70 35 69 153 188 226 230 31 17
60 32 64 32 4 0 17 5 28 11 22 12 20 12 95 30 56 14 219 15 275 2z"/>
<path d="M1280 1282 c0 -4 -21 -8 -46 -9 -57 -3 -138 -43 -179 -89 -53 -59
-56 -64 -76 -123 -19 -56 -20 -82 -17 -443 3 -376 4 -384 27 -431 25 -54 92
-125 137 -146 16 -7 38 -18 49 -25 23 -13 7198 -22 7218 -9 7 4 19 9 29 10 28
4 92 45 123 80 52 57 56 63 76 122 19 56 20 82 17 443 -3 376 -4 384 -27 431
-44 93 -142 167 -240 181 -24 3 -46 8 -49 10 -2 3 -15 1 -28 -4 -14 -6 -26 -6
-29 0 -3 5 -15 6 -29 0 -12 -4 -29 -5 -36 0 -7 5 -23 5 -35 0 -11 -4 -28 -4
-37 1 -10 6 -19 6 -23 0 -3 -7 -15 -7 -30 -1 -15 6 -27 6 -30 0 -3 -5 -15 -6
-28 -1 -12 5 -32 5 -44 0 -13 -5 -25 -4 -28 1 -3 5 -15 6 -29 0 -12 -4 -29 -5
-36 0 -7 5 -23 5 -35 0 -11 -4 -28 -4 -37 1 -10 6 -19 6 -23 0 -3 -7 -15 -7
-30 -1 -15 6 -27 6 -30 0 -3 -5 -15 -6 -28 -1 -12 5 -32 5 -44 0 -13 -5 -25
-4 -28 1 -3 5 -15 6 -29 0 -12 -4 -29 -5 -36 0 -7 5 -23 5 -35 0 -11 -4 -28
-4 -37 1 -10 6 -19 6 -23 0 -3 -7 -15 -7 -30 -1 -15 6 -27 6 -30 0 -3 -5 -15
-6 -28 -1 -12 5 -32 5 -44 0 -13 -5 -25 -4 -28 1 -3 5 -15 6 -29 0 -12 -4 -29
-5 -36 0 -7 5 -23 5 -35 0 -11 -4 -28 -4 -37 1 -10 6 -19 6 -23 0 -3 -7 -15
-7 -29 -1 -13 5 -26 6 -30 3 -8 -8 -106 -9 -106 -1 0 4 -13 3 -30 -2 -17 -5
-30 -5 -30 0 0 5 -12 5 -28 1 -15 -5 -37 -5 -49 0 -13 5 -25 4 -28 -1 -3 -6
-15 -6 -30 0 -15 6 -27 6 -30 0 -3 -6 -15 -6 -30 0 -15 6 -27 6 -30 0 -3 -6
-15 -6 -30 0 -15 6 -27 6 -30 0 -3 -6 -15 -6 -30 0 -15 6 -27 6 -30 0 -3 -6
-15 -6 -30 0 -15 6 -27 6 -30 0 -3 -6 -15 -6 -30 0 -15 6 -27 6 -30 0 -3 -6
-15 -6 -30 0 -15 6 -27 6 -30 0 -3 -6 -15 -6 -30 0 -15 6 -27 6 -30 0 -3 -6
-15 -6 -30 0 -15 6 -27 6 -30 0 -3 -6 -15 -6 -30 0 -15 6 -27 6 -30 0 -3 -6
-15 -6 -30 0 -15 6 -27 6 -30 0 -3 -6 -15 -6 -30 0 -15 6 -27 6 -30 0 -3 -6
-15 -6 -30 0 -15 6 -27 6 -30 0 -3 -6 -15 -6 -30 0 -15 6 -27 6 -30 0 -3 -5
-15 -6 -28 -1 -12 5 -34 5 -49 0 -16 -4 -28 -4 -28 1 0 6 -10 6 -25 0 -13 -5
-26 -6 -29 -2 -5 9 -81 6 -95 -3 -5 -3 -12 -1 -16 4 -3 6 -15 7 -29 1 -12 -4
-29 -5 -36 0 -7 5 -23 5 -35 0 -11 -4 -28 -4 -37 1 -10 6 -19 6 -23 0 -3 -7
-15 -7 -30 -1 -15 6 -27 6 -30 0 -3 -5 -15 -6 -28 -1 -12 5 -32 5 -44 0 -13
-5 -25 -4 -28 1 -3 5 -15 6 -29 0 -12 -4 -29 -5 -36 0 -7 5 -23 5 -35 0 -11
-4 -28 -4 -37 1 -10 6 -19 6 -23 0 -3 -7 -15 -7 -30 -1 -15 6 -27 6 -30 0 -3
-5 -15 -6 -28 -1 -12 5 -32 5 -44 0 -13 -5 -25 -4 -28 1 -3 5 -15 6 -29 0 -12
-4 -29 -5 -36 0 -7 5 -23 5 -35 0 -11 -4 -28 -4 -37 1 -10 6 -19 6 -23 0 -3
-7 -15 -7 -30 -1 -15 6 -27 6 -30 0 -3 -5 -15 -6 -28 -1 -12 5 -32 5 -44 0
-13 -5 -25 -4 -28 1 -3 5 -15 6 -29 0 -12 -4 -29 -5 -36 0 -7 5 -23 5 -35 0
-11 -4 -28 -4 -37 1 -10 6 -19 6 -23 0 -3 -7 -15 -7 -29 -1 -13 5 -26 6 -30 3
-8 -8 -106 -9 -106 -1 0 4 -13 3 -30 -2 -17 -5 -30 -5 -30 0 0 5 -12 5 -28 1
-15 -5 -37 -5 -49 0 -13 5 -25 4 -28 -1 -3 -6 -15 -6 -30 0 -15 6 -27 6 -30 0
-3 -6 -15 -6 -30 0 -15 6 -27 6 -30 0 -3 -6 -15 -6 -30 0 -15 6 -27 6 -30 0
-3 -6 -15 -6 -30 0 -15 6 -27 6 -30 0 -3 -6 -15 -6 -30 0 -15 6 -27 6 -30 0
-3 -6 -15 -6 -30 0 -15 6 -27 6 -30 0 -3 -6 -15 -6 -30 0 -15 6 -27 6 -30 0
-3 -6 -15 -6 -30 0 -15 6 -27 6 -30 0 -3 -6 -15 -6 -30 0 -15 6 -27 6 -30 0
-3 -6 -15 -6 -30 0 -15 6 -27 6 -30 0 -3 -6 -15 -6 -30 0 -15 6 -27 6 -30 0
-3 -6 -15 -6 -30 0 -15 6 -27 6 -30 0 -3 -6 -15 -6 -30 0 -15 6 -27 6 -30 0
-3 -6 -15 -6 -30 0 -15 6 -27 6 -30 0 -3 -5 -15 -6 -28 -1 -12 5 -34 5 -49 0
-16 -4 -28 -4 -28 1 0 6 -10 6 -25 0 -13 -5 -26 -6 -29 -2 -5 9 -81 6 -95 -3
-5 -3 -12 -1 -16 4 -3 6 -15 7 -29 1 -12 -4 -29 -5 -36 0 -7 5 -23 5 -35 0
-11 -4 -28 -4 -37 1 -10 6 -19 6 -23 0 -3 -7 -15 -7 -30 -1 -15 6 -27 6 -30 0
-3 -5 -15 -6 -28 -1 -12 5 -32 5 -44 0 -13 -5 -25 -4 -28 1 -3 5 -15 6 -29 0
-12 -4 -29 -5 -36 0 -7 5 -23 5 -35 0 -11 -4 -28 -4 -37 1 -10 6 -19 6 -23 0
-3 -7 -15 -7 -30 -1 -15 6 -27 6 -30 0 -3 -5 -15 -6 -28 -1 -12 5 -32 5 -44 0
-13 -5 -25 -4 -28 1 -3 5 -15 6 -29 0 -12 -4 -29 -5 -36 0 -7 5 -23 5 -35 0
-11 -4 -28 -4 -37 1 -10 6 -19 6 -23 0 -3 -7 -15 -7 -30 -1 -15 6 -27 6 -30 0
-3 -5 -15 -6 -28 -1 -12 5 -32 5 -44 0 -13 -5 -25 -4 -28 1 -3 5 -15 6 -29 0
-12 -4 -29 -5 -36 0 -7 5 -23 5 -35 0 -11 -4 -28 -4 -37 1 -10 6 -19 6 -23 0
-3 -7 -15 -7 -29 -1 -13 5 -26 6 -30 3 -8 -8 -106 -9 -106 -1 0 4 -13 3 -30
-2 -17 -5 -30 -5 -30 0 0 5 -12 5 -28 1 -15 -5 -37 -5 -49 0 -13 5 -25 4 -28
-1 -3 -6 -15 -6 -30 0 -15 6 -27 6 -30 0 -3 -6 -15 -6 -30 0 -15 6 -27 6 -30
0 -3 -6 -15 -6 -30 0 -15 6 -27 6 -30 0 -3 -6 -15 -6 -30 0 -15 6 -27 6 -30 0
-3 -6 -15 -6 -30 0 -15 6 -27 6 -30 0 -3 -6 -15 -6 -30 0 -15 6 -27 6 -30 0
-3 -6 -15 -6 -30 0 -14 5 -25 6 -25 2z"/>
</g>
</svg>
