<svg width="1280" height="826" viewBox="0 0 1280 826"  xmlns="http://www.w3.org/2000/svg">
<g clip-path="url(#clip0_535_2)">
<path d="M1190.2 1.99994C1203 4.79994 1213.7 9.69994 1220.3 15.8999C1224.4 19.6999 1234 35.4999 1234 38.4999V40.9999H1255.8C1271.4 40.9999 1277.9 41.2999 1278.8 42.1999C1280.5 43.8999 1280.5 120.1 1278.8 121.8C1277.9 122.7 1271.4 123 1255.8 123H1234V159.6C1234 186.8 1234.3 196.7 1235.2 198.3C1236.9 201.2 1236.9 219.8 1235.2 222.7C1234.5 224 1234 228.5 1234 233.4V242H1186.5H1139.1L1138.8 249.1L1138.5 256.3L1040 256.2C985.8 256.1 919.9 256.4 893.5 256.9C840.3 257.8 836.1 258.3 814.3 265.5C771.5 279.8 741.8 313.5 732.6 358.3C728.2 379.7 727.8 408.6 731.6 429.6C732.2 432.7 732.1 432.7 722.8 436.8C687 452.5 643 462.3 591.5 466.1C571 467.6 522.3 466.7 508.5 464.6C503 463.8 492.9 461.7 486 460C447.9 450.7 421.6 454.8 403.1 472.9C392.7 483.1 387 493.9 381.9 513C380.8 517.1 374.2 540.7 367.4 565.5C341.2 659.8 337.2 679.8 335.6 726.5C334.9 746.2 336.3 781.2 338 788.6C338.9 792.1 339 797.5 338.5 806.4C337.9 817.7 337.5 819.4 335.4 821.9C334.1 823.5 331.6 825 329.9 825.4C327.5 825.9 116.6 807.4 91.3999 804.5C87.1999 804 86.0999 803.4 85.0999 801.4C84.4999 800 83.9999 798 83.9999 797C83.9999 795.7 83.2999 795 81.9999 795C80.3999 795 79.9999 795.7 79.9999 798.3C79.9999 802.7 74.6999 813.2 70.7999 816.5C62.4999 823.5 50.1999 825.9 40.1999 822.6C24.8999 817.5 16.3999 799.4 22.4999 784.8C23.0999 783.3 22.2999 783.1 15.2999 782.8L7.49993 782.5L5.79993 775.5C1.79993 759.6 0.599932 747.3 0.599932 720.5C0.499932 693.6 1.59993 679.7 5.09993 663.5C8.39993 647.8 46.1999 550.1 92.1999 438C117 377.7 119.4 369.8 119.4 348.5C119.3 334.6 117.7 327 112.4 317C100.1 293.5 74.5999 277.6 27.4999 264C18.1999 261.2 9.39993 258.2 8.09993 257.2C-0.500068 250.8 -2.40007 236.2 4.39993 228.3C6.59993 225.8 7.19993 225.6 17.0999 225.3C23.2999 225.2 30.1999 224.3 34.0999 223.2C53.7999 217.7 70.6999 200.8 79.6999 177.5C81.1999 173.7 82.9999 170 83.5999 169.5C84.1999 168.9 85.4999 165.6 86.4999 162C88.6999 153.5 96.1999 134.6 101.2 124.6L105.2 116.7L102.2 110.1C100.5 106.5 96.8999 96.9999 93.9999 88.9999C91.0999 80.9999 87.8999 72.6999 86.7999 70.5999C80.6999 58.6999 85.1999 43.4999 96.3999 37.7999C102.8 34.4999 108.9 34.9999 119.5 39.3999C138.2 47.2999 144.2 47.6999 156 41.3999L163.1 37.6999L167.9 39.8999L172.7 42.1999L181.2 36.5999L189.8 30.9999H205.9C220.2 30.9999 222 30.7999 222.8 29.1999C223.3 28.2999 225.2 22.3999 227 16.1999L230.3 4.99994H240.4H250.5L255 17.7999L259.5 30.4999L407.2 30.7999L555 30.9999V35.9999V40.9999H850.4H1145.7L1148.2 37.1999C1149.6 35.1999 1151.7 31.5999 1152.9 29.1999L1155 24.9999H1161.1H1167.1L1173 12.4999C1176.2 5.59994 1179.5 -6.11277e-05 1180.2 0.0999389C1180.9 0.0999389 1185.4 0.999939 1190.2 1.99994ZM102.1 51.4999C96.1999 56.4999 95.8999 64.6999 101.4 69.8999C109 77.0999 121 71.8999 121 61.3999C121 58.8999 120.3 55.7999 119.4 54.3999C115.6 48.6999 107.2 47.2999 102.1 51.4999ZM563.7 290.7C557.9 312.2 556.3 337.6 559.6 353.8C562.7 369.3 570.4 383.8 582.2 396.4C592.1 407 601.8 414.3 619.9 424.8C621 425.4 620.9 426.3 619.1 429.8C617.9 432.1 616.3 434 615.6 434C613.4 434 597.1 428.1 591.5 425.3C570.7 414.9 556.6 399.7 541.9 371.8C534.2 357.2 531.4 353.6 526.2 351.7L522.7 350.5L523.4 329.5L524 308.5L518.5 306.1C512 303.3 505.9 297 503.4 290.3C501.8 286.1 501.5 285.9 498.5 286.4C487.1 288.6 465.6 297.8 454 305.5C446.4 310.5 437 320.2 430.8 329.3C417.3 349.2 414.5 371.6 423.1 391.6C428.1 403.4 440.9 418.7 451.4 425.4C483.7 446 542 458.4 591 455C635.9 451.8 671.1 438.9 694.3 417.1C711.5 400.9 719.2 384.5 719.1 364.1C719.1 346.4 712.2 328.1 699.6 312.5C684.1 293.2 667.3 285.5 632.5 281.6C630.8 281.5 615.3 281.2 597.9 281.1L566.3 281L563.7 290.7ZM36.2999 786.7C33.8999 789.8 33.4999 791.3 33.4999 796.5C33.4999 801.7 33.8999 803.2 36.2999 806.3C40.0999 811.4 44.3999 813.4 51.0999 813.4C58.2999 813.5 64.2999 809.8 67.0999 803.7C69.3999 798.6 69.4999 795.1 67.4999 790.3C64.4999 783.2 63.9999 783 50.8999 783H39.0999L36.2999 786.7Z" />
</g>
<defs>
<clipPath id="clip0_535_2">
<rect width="1280" height="826"  transform="matrix(-1 0 0 1 1280 0)"/>
</clipPath>
</defs>
</svg>
