<svg width="30" height="31" viewBox="0 0 30 31"  xmlns="http://www.w3.org/2000/svg">
<g clip-path="url(#clip0_249_164)">
<path d="M29.9707 9.07008C29.9004 7.47607 29.6426 6.38019 29.2734 5.43061C28.8924 4.42264 28.3064 3.52022 27.5386 2.77002C26.7884 2.00816 25.88 1.41615 24.8837 1.04117C23.9286 0.671912 22.8385 0.41414 21.2445 0.34386C19.6385 0.267627 19.1287 0.25 15.0557 0.25C10.9826 0.25 10.4728 0.267627 8.87281 0.337908C7.2788 0.408188 6.18293 0.666188 5.23357 1.03522C4.22538 1.41615 3.32295 2.0022 2.57276 2.77002C1.81089 3.52022 1.21911 4.4286 0.843904 5.42488C0.474646 6.3802 0.216875 7.47011 0.146594 9.06413C0.0703617 10.67 0.0527344 11.1799 0.0527344 15.2529C0.0527344 19.326 0.0703617 19.8358 0.140642 21.4358C0.210923 23.0298 0.468923 24.1257 0.838181 25.0753C1.21911 26.0832 1.81089 26.9856 2.57276 27.7358C3.32295 28.4977 4.23133 29.0897 5.22762 29.4647C6.18293 29.8339 7.27284 30.0917 8.86709 30.162C10.4668 30.2325 10.9769 30.2499 15.0499 30.2499C19.123 30.2499 19.6328 30.2325 21.2328 30.162C22.8268 30.0917 23.9227 29.8339 24.872 29.4647C26.8882 28.6852 28.4822 27.0912 29.2617 25.0753C29.6307 24.1199 29.8887 23.0298 29.959 21.4358C30.0293 19.8358 30.0469 19.326 30.0469 15.2529C30.0469 11.1799 30.0409 10.67 29.9707 9.07008ZM27.2691 21.3186C27.2046 22.7837 26.9585 23.5749 26.7533 24.1023C26.2492 25.4093 25.212 26.4465 23.905 26.9506C23.3776 27.1557 22.5807 27.4018 21.1213 27.4662C19.539 27.5367 19.0644 27.5541 15.0616 27.5541C11.0588 27.5541 10.5783 27.5367 9.0017 27.4662C7.53657 27.4018 6.7454 27.1557 6.21795 26.9506C5.56757 26.7102 4.97557 26.3293 4.49505 25.8312C3.99691 25.3447 3.61597 24.7586 3.3756 24.1083C3.17048 23.5808 2.92439 22.7837 2.86006 21.3245C2.78955 19.7422 2.77215 19.2674 2.77215 15.2646C2.77215 11.2618 2.78955 10.7813 2.86006 9.20492C2.92439 7.73979 3.17048 6.94862 3.3756 6.42117C3.61597 5.77056 3.99691 5.17879 4.501 4.69804C4.98724 4.1999 5.5733 3.81896 6.2239 3.57882C6.75135 3.3737 7.54847 3.12761 9.00765 3.06305C10.59 2.99277 11.0648 2.97514 15.0673 2.97514C19.0761 2.97514 19.5506 2.99277 21.1272 3.06305C22.5924 3.12761 23.3835 3.3737 23.911 3.57882C24.5614 3.81896 25.1534 4.1999 25.6339 4.69804C26.132 5.18451 26.513 5.77056 26.7533 6.42117C26.9585 6.94862 27.2046 7.74551 27.2691 9.20492C27.3394 10.7873 27.357 11.2618 27.357 15.2646C27.357 19.2674 27.3394 19.7362 27.2691 21.3186Z" />
<path d="M15.0557 7.5459C10.8011 7.5459 7.34912 10.9977 7.34912 15.2525C7.34912 19.5073 10.8011 22.9591 15.0557 22.9591C19.3105 22.9591 22.7623 19.5073 22.7623 15.2525C22.7623 10.9977 19.3105 7.5459 15.0557 7.5459ZM15.0557 20.2516C12.2955 20.2516 10.0566 18.0129 10.0566 15.2525C10.0566 12.4921 12.2955 10.2534 15.0557 10.2534C17.8161 10.2534 20.0548 12.4921 20.0548 15.2525C20.0548 18.0129 17.8161 20.2516 15.0557 20.2516V20.2516Z" />
<path d="M24.8661 7.24152C24.8661 8.23506 24.0605 9.04065 23.0667 9.04065C22.0732 9.04065 21.2676 8.23506 21.2676 7.24152C21.2676 6.24775 22.0732 5.44238 23.0667 5.44238C24.0605 5.44238 24.8661 6.24775 24.8661 7.24152V7.24152Z" />
</g>
<defs>
<clipPath id="clip0_249_164">
<rect width="30" height="30"  transform="translate(0 0.25)"/>
</clipPath>
</defs>
</svg>
