<svg width="455" height="333" viewBox="0 0 455 333"  xmlns="http://www.w3.org/2000/svg">
<path d="M34.052 5.948C15.249 5.948 0 21.196 0 39.999C0 58.802 15.249 74.051 34.052 74.051C52.855 74.051 68.104 58.801 68.104 39.999C68.104 21.196 52.855 5.948 34.052 5.948Z" />
<path d="M145.499 80H414.103C436.195 80 454.103 62.092 454.103 40C454.103 17.908 436.195 0 414.103 0H145.499C123.407 0 105.499 17.908 105.499 40C105.499 62.092 123.407 80 145.499 80Z" />
<path d="M34.052 132.008C15.249 132.008 0 147.256 0 166.059C0 184.862 15.249 200.111 34.052 200.111C52.855 200.111 68.104 184.862 68.104 166.059C68.104 147.256 52.855 132.008 34.052 132.008Z" />
<path d="M414.104 126.06H145.499C123.407 126.06 105.499 143.968 105.499 166.06C105.499 188.152 123.407 206.06 145.499 206.06H414.103C436.195 206.06 454.103 188.152 454.103 166.06C454.103 143.968 436.195 126.06 414.104 126.06Z" />
<path d="M34.052 258.068C15.249 258.068 0 273.316 0 292.119C0 310.922 15.249 326.171 34.052 326.171C52.855 326.171 68.104 310.922 68.104 292.119C68.104 273.316 52.855 258.068 34.052 258.068Z" />
<path d="M414.104 252.119H145.499C123.407 252.119 105.499 270.027 105.499 292.119C105.499 314.211 123.407 332.119 145.499 332.119H414.103C436.195 332.119 454.103 314.211 454.103 292.119C454.103 270.027 436.195 252.119 414.104 252.119Z" />
</svg>
