<svg width="30" height="31" viewBox="0 0 30 31"  xmlns="http://www.w3.org/2000/svg">
<g clip-path="url(#clip0_256_207)">
<path d="M29.143 21.4506L22.5805 18.6381C22.3001 18.5187 21.9886 18.4935 21.6927 18.5664C21.3968 18.6393 21.1326 18.8064 20.9398 19.0424L18.0336 22.5932C13.4725 20.4427 9.80188 16.7721 7.65137 12.211L11.2021 9.30474C11.4387 9.11237 11.6061 8.84816 11.679 8.55213C11.752 8.2561 11.7265 7.94437 11.6064 7.66412L8.79395 1.10162C8.66218 0.799513 8.42912 0.552855 8.13497 0.404175C7.84082 0.255495 7.50401 0.214113 7.18262 0.287164L1.08887 1.69341C0.779005 1.76497 0.502546 1.93944 0.30461 2.18835C0.106675 2.43726 -0.00104794 2.74591 -0.000976527 3.06392C-0.000976527 18.0932 12.1807 30.2514 27.1865 30.2514C27.5046 30.2516 27.8134 30.144 28.0625 29.946C28.3115 29.7481 28.486 29.4715 28.5576 29.1616L29.9639 23.0678C30.0364 22.7449 29.9942 22.4067 29.8444 22.1115C29.6945 21.8164 29.4465 21.5827 29.143 21.4506V21.4506Z" fill="black"/>
</g>
<defs>
<clipPath id="clip0_256_207">
<rect width="30" height="30"  transform="translate(-0.000976562 0.251953)"/>
</clipPath>
</defs>
</svg>
