<svg width="30" height="31" viewBox="0 0 30 31"  xmlns="http://www.w3.org/2000/svg">
<g clip-path="url(#clip0_249_170)">
<path d="M15.4075 0.25C7.18375 0.25125 2.8125 5.52 2.8125 11.265C2.8125 13.9288 4.30125 17.2525 6.685 18.3062C7.365 18.6125 7.275 18.2388 7.86 16.0013C7.90625 15.815 7.8825 15.6538 7.7325 15.48C4.325 11.5387 7.0675 3.43625 14.9213 3.43625C26.2875 3.43625 24.1638 19.1638 16.8988 19.1638C15.0263 19.1638 13.6313 17.6938 14.0725 15.875C14.6075 13.7088 15.655 11.38 15.655 9.81875C15.655 5.88375 9.7925 6.4675 9.7925 11.6813C9.7925 13.2925 10.3625 14.38 10.3625 14.38C10.3625 14.38 8.47625 22 8.12625 23.4237C7.53375 25.8338 8.20625 29.735 8.265 30.0713C8.30125 30.2563 8.50875 30.315 8.625 30.1625C8.81125 29.9188 11.0912 26.6663 11.73 24.315C11.9625 23.4588 12.9163 19.9837 12.9163 19.9837C13.545 21.1188 15.3575 22.0688 17.2888 22.0688C23.0338 22.0688 27.1863 17.0188 27.1863 10.7525C27.1663 4.745 22.025 0.25 15.4075 0.25Z" />
</g>
<defs>
<clipPath id="clip0_249_170">
<rect width="30" height="30"  transform="translate(0 0.25)"/>
</clipPath>
</defs>
</svg>
