<svg width="30" height="19" viewBox="0 0 30 19"  xmlns="http://www.w3.org/2000/svg">
<path d="M24.8937 10.9266C24.4087 10.3141 24.5475 10.0416 24.8937 9.4941C24.9 9.48785 28.9037 3.95535 29.3162 2.0791L29.3187 2.07785C29.5237 1.3941 29.3187 0.891602 28.3275 0.891602H25.0475C24.2125 0.891602 23.8275 1.32285 23.6212 1.80535C23.6212 1.80535 21.9512 5.80285 19.5887 8.3941C18.8262 9.14285 18.4737 9.38285 18.0575 9.38285C17.8525 9.38285 17.5337 9.14285 17.5337 8.4591V2.07785C17.5337 1.25785 17.3 0.891602 16.6087 0.891602H11.4512C10.9275 0.891602 10.6162 1.2741 10.6162 1.63035C10.6162 2.40785 11.7975 2.5866 11.92 4.7741V9.52035C11.92 10.5604 11.7312 10.7516 11.3125 10.7516C10.1975 10.7516 7.49125 6.73785 5.8875 2.1441C5.56375 1.25285 5.2475 0.892851 4.40625 0.892851H1.125C0.18875 0.892851 0 1.3241 0 1.8066C0 2.6591 1.115 6.89785 5.185 12.4979C7.8975 16.3204 11.7175 18.3916 15.1925 18.3916C17.2812 18.3916 17.5362 17.9316 17.5362 17.1404C17.5362 13.4879 17.3475 13.1429 18.3937 13.1429C18.8787 13.1429 19.7137 13.3829 21.6637 15.2266C23.8925 17.4129 24.2587 18.3916 25.5062 18.3916H28.7862C29.7212 18.3916 30.195 17.9316 29.9225 17.0241C29.2987 15.1154 25.0837 11.1891 24.8937 10.9266V10.9266Z" />
</svg>
