<?xml version="1.0" encoding="utf-8"?><!DOCTYPE svg PUBLIC "-//W3C//DTD SVG 1.1//EN" "http://www.w3.org/Graphics/SVG/1.1/DTD/svg11.dtd"><svg viewBox="0 0 1280 826" xmlns="http://www.w3.org/2000/svg" xmlns:xlink="http://www.w3.org/1999/xlink"><style>:root>svg{display:none}:root>svg:target{display:block}</style><svg viewBox="0 0 41 80" id="ar" xmlns="http://www.w3.org/2000/svg"><path d="M23.52 40L.48 80l40-40-40-40 23.04 40z"/></svg><svg id="files" data-name="Layer 1" viewBox="0 0 111.87 122.88" xmlns="http://www.w3.org/2000/svg"><defs><style>.bcls-1{fill-rule:evenodd}</style></defs><path class="bcls-1" d="M56.75 113.57v-38.5a9.34 9.34 0 019.31-9.31h36.5a9.34 9.34 0 019.31 9.31v38.5a9.34 9.34 0 01-9.31 9.31h-36.5a9.34 9.34 0 01-9.31-9.31zm2.74-102.1l19.59 18.35H59.49V11.47zM20.72 69.38a2.12 2.12 0 00-2 2.21 2.08 2.08 0 002 2.21H45.3v-4.42zm0 15.83a2.12 2.12 0 00-2 2.21 2.08 2.08 0 002 2.21H45.3v-4.42zm0-47.5a2.12 2.12 0 00-2 2.21 2.09 2.09 0 002 2.21h22.73a2.12 2.12 0 002-2.21 2.1 2.1 0 00-2-2.21zm0-15.83a2.12 2.12 0 00-2 2.21 2.08 2.08 0 002 2.21h12.5a2.12 2.12 0 002-2.21 2.09 2.09 0 00-2-2.21zm0 31.67a2.12 2.12 0 00-2 2.21 2.1 2.1 0 002 2.21h38.44a2.13 2.13 0 002-2.21 2.09 2.09 0 00-2-2.21zM90 32.45a3.26 3.26 0 00-2.37-3.14L58.74 1.2A3.21 3.21 0 0056.23 0H5.87A5.86 5.86 0 000 5.86v100.39a5.84 5.84 0 001.72 4.15 5.91 5.91 0 004.15 1.71h39.52v-6.55H6.55v-99h46.39v26.52a3.29 3.29 0 003.29 3.29h27.2v21.45H90V32.45zM70 93.07h12V89a8.63 8.63 0 0117.26 0v4.07h-3.67V89a4.94 4.94 0 00-8.42-3.48A4.87 4.87 0 0085.74 89v4.06h2.37a.66.66 0 01.66.65v13.84a.67.67 0 01-.66.66H70a.67.67 0 01-.66-.66V93.72a.66.66 0 01.66-.65zm9.31 7.57l1 4.79h-2.82l.83-4.85a1.94 1.94 0 111 0z"/></svg><svg viewBox="0 0 297 297" id="flowers" xmlns="http://www.w3.org/2000/svg"><path d="M243.841 100.308c4.258-6.164 12.225-18.258 17.723-30.012 4.984-10.655 10.557-25.913 1.436-35.361-2.384-2.468-6.797-5.408-14.28-5.408-1.476 0-3.016.107-4.639.326-3.16-6.912-7.601-11.111-13.264-12.522a16.48 16.48 0 00-3.975-.484c-4.506 0-9.016 1.747-13.639 5.305-4.852-3.479-9.463-5.187-13.948-5.187-1.759 0-3.48.269-5.124.802a16.8 16.8 0 00-2.82 1.217c-1.302-3.924-3.594-7.331-7.36-9.685-5.198-3.247-11.811-3.446-19.584-.354C159.628 3.001 154.304 0 148.464 0c-5.839 0-11.165 3.001-15.902 8.943-7.773-3.092-14.387-2.894-19.585.355-3.838 2.398-6.148 5.89-7.438 9.907a16.573 16.573 0 00-7.564-1.804c-4.388 0-8.925 1.627-13.728 4.945-4.663-3.722-9.238-5.548-13.845-5.548-1.242 0-2.48.141-3.688.418-5.687 1.315-10.198 5.438-13.478 12.29a34.032 34.032 0 00-5.131-.411c-7.195 0-11.516 2.81-13.872 5.166-9.285 9.284-3.98 24.637.816 35.378 5.293 11.849 13.046 24.079 17.196 30.315 4.343 6.524 10.268 11.415 16.912 14.198H50.653c-4.434 0-8.313 2.959-9.508 7.229s.611 8.818 4.401 11.118c.19.115 19.169 11.789 33.998 34.352 19.489 29.65 23.074 63.574 10.655 100.83a9.884 9.884 0 009.376 13.008H106v6.424c0 5.458 4.426 9.884 9.884 9.884s9.883-4.426 9.883-9.884v-6.424h12.849v6.424c0 5.458 4.426 9.884 9.884 9.884s9.884-4.426 9.884-9.884v-6.424h12.849v6.424c0 5.458 4.425 9.884 9.883 9.884 5.459 0 9.884-4.426 9.884-9.884v-6.424h6.444c5.459 0 9.884-4.426 9.884-9.884 0-1.315-.257-2.57-.723-3.718-12.184-37.022-8.534-70.744 10.852-100.237 14.829-22.564 33.808-34.237 33.977-34.34a9.88 9.88 0 004.439-11.113 9.882 9.882 0 00-9.524-7.246h-19.535c6.644-2.679 12.613-7.458 17.027-13.843zM123.999 26.867c1.366.425 3.596 1.348 6.866 3.363a9.887 9.887 0 0013.96-3.87c1.537-2.965 2.788-4.693 3.639-5.671.852.978 2.102 2.706 3.639 5.671a9.881 9.881 0 0013.959 3.87c3.269-2.014 5.498-2.938 6.866-3.362.69 5.44-1.376 19.978-10.248 43.524-2.031 5.389-6.832 11.146-14.216 11.146-7.383 0-12.184-5.758-14.215-11.146-8.874-23.546-10.939-38.085-10.25-43.525zm-75.074 22.03c1.376.104 3.764.493 7.445 1.734a9.88 9.88 0 0012.73-6.909c.83-3.234 1.662-5.2 2.271-6.345 1.05.763 2.66 2.165 4.823 4.709a9.882 9.882 0 007.099 3.468c2.759.14 5.417-.909 7.372-2.839 2.743-2.707 4.7-4.107 5.932-4.825 1.896 5.141 3.152 19.772-.194 44.719-.767 5.707-4.148 12.396-11.345 14.059a13.402 13.402 0 01-3.02.351c-5.012-.001-9.997-2.997-13.337-8.016-13.947-20.952-19.228-34.654-19.776-40.106zm67.068 36.341c.213-1.582.453-3.496.695-5.631 4.438 9.953 12.441 17.18 21.928 20.167v14.38H94.929c11.23-4.762 19.274-15.573 21.064-28.916zm-20.424 70.011c-5.647-8.472-11.746-15.578-17.433-21.327h130.122l-91.74 104.846c3.432-36.78-8.543-64.913-20.949-83.519zm88.698 105.676h-60.871l61.496-70.281c-5.6 19.239-7.434 42.754-.625 70.281zm-25.883-146.771v-14.4c9.223-2.927 17.038-9.865 21.526-19.42.155 1.535.309 2.939.45 4.145 1.596 13.743 9.854 24.925 21.504 29.676h-43.48zm55.945-17.303a13.44 13.44 0 01-3.239-.403c-7.168-1.789-10.43-8.535-11.096-14.256-2.917-24.999-1.401-39.608.585-44.717 1.22.738 3.152 2.173 5.845 4.926a9.906 9.906 0 007.322 2.973 9.881 9.881 0 007.159-3.345c2.211-2.507 3.842-3.88 4.905-4.623.589 1.154 1.384 3.134 2.156 6.383a9.882 9.882 0 0012.607 7.131c3.627-1.153 6.005-1.524 7.48-1.607-.646 5.441-6.166 19.05-20.478 39.757-3.365 4.872-8.316 7.781-13.246 7.781z"/></svg><svg viewBox="0 0 25 25" id="git" xmlns="http://www.w3.org/2000/svg"><path d="M8.491 19.404c0 .098-.112.176-.254.176-.16.015-.273-.063-.273-.176 0-.097.112-.175.254-.175.146-.015.273.063.273.175zm-1.518-.22c-.035.098.063.21.21.24.127.049.273 0 .302-.098.03-.098-.063-.21-.21-.254-.127-.034-.268.015-.302.113zm2.158-.082c-.142.034-.24.127-.225.239.015.098.142.161.288.127.142-.034.24-.127.225-.225-.015-.093-.147-.156-.288-.141zM12.344.39C5.57.39.39 5.532.39 12.305c0 5.415 3.408 10.049 8.276 11.68.625.112.845-.274.845-.591 0-.303-.015-1.973-.015-2.998 0 0-3.418.732-4.136-1.456 0 0-.556-1.42-1.357-1.787 0 0-1.118-.766.078-.752 0 0 1.216.098 1.885 1.26 1.07 1.885 2.861 1.343 3.56 1.02.112-.78.43-1.323.78-1.645-2.729-.303-5.483-.698-5.483-5.395 0-1.343.371-2.017 1.153-2.876-.127-.318-.542-1.626.127-3.316 1.02-.317 3.369 1.319 3.369 1.319a11.472 11.472 0 013.066-.415c1.04 0 2.09.141 3.066.415 0 0 2.35-1.641 3.37-1.319.669 1.695.253 2.998.127 3.316.78.864 1.26 1.538 1.26 2.876 0 4.711-2.877 5.088-5.606 5.395.45.386.83 1.118.83 2.266 0 1.645-.015 3.681-.015 4.082 0 .317.225.703.845.59 4.883-1.62 8.193-6.254 8.193-11.67C24.61 5.533 19.116.392 12.344.392zM5.137 17.23c-.064.05-.05.162.034.254.078.079.19.113.254.05.063-.05.049-.162-.034-.255-.079-.078-.19-.112-.254-.049zm-.528-.395c-.034.063.015.142.113.19.078.05.175.035.21-.034.034-.063-.015-.141-.113-.19-.097-.03-.175-.015-.21.034zm1.582 1.738c-.078.064-.048.21.064.303.112.112.254.127.317.049.064-.064.034-.21-.063-.303-.108-.112-.254-.127-.318-.049zm-.556-.718c-.078.05-.078.176 0 .288.078.113.21.162.273.113.078-.064.078-.19 0-.303-.068-.112-.195-.161-.273-.098z"/></svg><svg viewBox="0 0 1280 826" id="gun" xmlns="http://www.w3.org/2000/svg"><g clip-path="url(#eclip0_535_2)"><path d="M1190.2 2c12.8 2.8 23.5 7.7 30.1 13.9 4.1 3.8 13.7 19.6 13.7 22.6V41h21.8c15.6 0 22.1.3 23 1.2 1.7 1.7 1.7 77.9 0 79.6-.9.9-7.4 1.2-23 1.2H1234v36.6c0 27.2.3 37.1 1.2 38.7 1.7 2.9 1.7 21.5 0 24.4-.7 1.3-1.2 5.8-1.2 10.7v8.6h-94.9l-.3 7.1-.3 7.2-98.5-.1c-54.2-.1-120.1.2-146.5.7-53.2.9-57.4 1.4-79.2 8.6-42.8 14.3-72.5 48-81.7 92.8-4.4 21.4-4.8 50.3-1 71.3.6 3.1.5 3.1-8.8 7.2-35.8 15.7-79.8 25.5-131.3 29.3-20.5 1.5-69.2.6-83-1.5-5.5-.8-15.6-2.9-22.5-4.6-38.1-9.3-64.4-5.2-82.9 12.9-10.4 10.2-16.1 21-21.2 40.1-1.1 4.1-7.7 27.7-14.5 52.5-26.2 94.3-30.2 114.3-31.8 161-.7 19.7.7 54.7 2.4 62.1.9 3.5 1 8.9.5 17.8-.6 11.3-1 13-3.1 15.5-1.3 1.6-3.8 3.1-5.5 3.5-2.4.5-213.3-18-238.5-20.9-4.2-.5-5.3-1.1-6.3-3.1-.6-1.4-1.1-3.4-1.1-4.4 0-1.3-.7-2-2-2-1.6 0-2 .7-2 3.3 0 4.4-5.3 14.9-9.2 18.2-8.3 7-20.6 9.4-30.6 6.1-15.3-5.1-23.8-23.2-17.7-37.8.6-1.5-.2-1.7-7.2-2l-7.8-.3-1.7-7c-4-15.9-5.2-28.2-5.2-55-.1-26.9 1-40.8 4.5-57C8.4 647.8 46.2 550.1 92.2 438c24.8-60.3 27.2-68.2 27.2-89.5-.1-13.9-1.7-21.5-7-31.5-12.3-23.5-37.8-39.4-84.9-53-9.3-2.8-18.1-5.8-19.4-6.8-8.6-6.4-10.5-21-3.7-28.9 2.2-2.5 2.8-2.7 12.7-3 6.2-.1 13.1-1 17-2.1 19.7-5.5 36.6-22.4 45.6-45.7 1.5-3.8 3.3-7.5 3.9-8 .6-.6 1.9-3.9 2.9-7.5 2.2-8.5 9.7-27.4 14.7-37.4l4-7.9-3-6.6C100.5 106.5 96.9 97 94 89c-2.9-8-6.1-16.3-7.2-18.4-6.1-11.9-1.6-27.1 9.6-32.8 6.4-3.3 12.5-2.8 23.1 1.6 18.7 7.9 24.7 8.3 36.5 2l7.1-3.7 4.8 2.2 4.8 2.3 8.5-5.6 8.6-5.6h16.1c14.3 0 16.1-.2 16.9-1.8.5-.9 2.4-6.8 4.2-13L230.3 5h20.2l4.5 12.8 4.5 12.7 147.7.3L555 31v10h590.7l2.5-3.8c1.4-2 3.5-5.6 4.7-8l2.1-4.2h12.1l5.9-12.5c3.2-6.9 6.5-12.5 7.2-12.4.7 0 5.2.9 10 1.9zM102.1 51.5c-5.9 5-6.2 13.2-.7 18.4 7.6 7.2 19.6 2 19.6-8.5 0-2.5-.7-5.6-1.6-7-3.8-5.7-12.2-7.1-17.3-2.9zm461.6 239.2c-5.8 21.5-7.4 46.9-4.1 63.1 3.1 15.5 10.8 30 22.6 42.6 9.9 10.6 19.6 17.9 37.7 28.4 1.1.6 1 1.5-.8 5-1.2 2.3-2.8 4.2-3.5 4.2-2.2 0-18.5-5.9-24.1-8.7-20.8-10.4-34.9-25.6-49.6-53.5-7.7-14.6-10.5-18.2-15.7-20.1l-3.5-1.2.7-21 .6-21-5.5-2.4c-6.5-2.8-12.6-9.1-15.1-15.8-1.6-4.2-1.9-4.4-4.9-3.9-11.4 2.2-32.9 11.4-44.5 19.1-7.6 5-17 14.7-23.2 23.8-13.5 19.9-16.3 42.3-7.7 62.3 5 11.8 17.8 27.1 28.3 33.8C483.7 446 542 458.4 591 455c44.9-3.2 80.1-16.1 103.3-37.9 17.2-16.2 24.9-32.6 24.8-53 0-17.7-6.9-36-19.5-51.6-15.5-19.3-32.3-27-67.1-30.9-1.7-.1-17.2-.4-34.6-.5l-31.6-.1-2.6 9.7zm-527.4 496c-2.4 3.1-2.8 4.6-2.8 9.8 0 5.2.4 6.7 2.8 9.8 3.8 5.1 8.1 7.1 14.8 7.1 7.2.1 13.2-3.6 16-9.7 2.3-5.1 2.4-8.6.4-13.4-3-7.1-3.5-7.3-16.6-7.3H39.1l-2.8 3.7z"/></g><defs><clipPath id="eclip0_535_2"><path transform="matrix(-1 0 0 1 1280 0)" d="M0 0h1280v826H0z"/></clipPath></defs></svg><svg id="hz" data-name="Layer 1" viewBox="0 0 122.88 114.39" xmlns="http://www.w3.org/2000/svg"><defs><style>.fcls-1{fill-rule:evenodd}</style></defs><path class="fcls-1" d="M36.23 62.8a84.1 84.1 0 0139.26 0 6.14 6.14 0 013.69 2.74L88.09 78l5.45-14.94a4.73 4.73 0 012.13-2.91l6.08-4.55a1.48 1.48 0 012.06.29 1.48 1.48 0 01-.29 2.06L100 60.58l1 .42 3.89-2.55a1.15 1.15 0 011.58.33 1.15 1.15 0 01-.33 1.58l-2 1.3h5.08a1.63 1.63 0 011.62 1.62 1.63 1.63 0 01-1.62 1.63h-4.4a13.52 13.52 0 01-.72 1.84L94.58 94a5.55 5.55 0 01-10 1l-8.5-13.08-4.19 23c-.93 5.12-4 9.48-8.88 9.48H48.73c-4.88 0-7.94-4.36-8.87-9.48l-4.4-24.17L26.23 95a5.55 5.55 0 01-7.6 2 5.48 5.48 0 01-2.42-3L6.74 66.75A13.52 13.52 0 016 64.91H1.63A1.63 1.63 0 010 63.28a1.63 1.63 0 011.63-1.62H6.7l-2-1.3a1.14 1.14 0 01-.33-1.58A1.14 1.14 0 016 58.45L9.85 61l1-.42-3.59-2.66A1.48 1.48 0 017 55.86a1.48 1.48 0 012-.29l6.09 4.55a4.73 4.73 0 012.13 2.91L22.68 78l8.91-12.45a5.9 5.9 0 014.55-2.72h.09zm18.84-42.25a18.23 18.23 0 11-18.23 18.23 18.23 18.23 0 0118.23-18.23zm42.28 6.75v-.6a13.47 13.47 0 01.32-3.26 4.74 4.74 0 011-2 7.3 7.3 0 011.55-1.34c.53-.35 1-.68 1.42-1a4.31 4.31 0 001-1 2.15 2.15 0 00.37-1.24 2 2 0 00-.3-1.1 1.94 1.94 0 00-.8-.73 2.54 2.54 0 00-1.13-.26 2.48 2.48 0 00-1.24.31 2.4 2.4 0 00-.91.85 2.34 2.34 0 00-.34 1.27h-6.41a7.57 7.57 0 011.24-4.44 7.18 7.18 0 013.23-2.51 11.78 11.78 0 014.42-.8 13.48 13.48 0 014.75.78 7.21 7.21 0 013.29 2.33 6.2 6.2 0 011.2 3.89 6 6 0 01-1.94 4.64 10.94 10.94 0 01-2.07 1.59 7.82 7.82 0 00-1.51 1.07 3.78 3.78 0 00-.92 1.25 4.34 4.34 0 00-.31 1.7v.6zM114.89 3H85.83a3.82 3.82 0 00-1.45.28 3.89 3.89 0 00-1.24.84A3.76 3.76 0 0082 6.81v30.61a3.87 3.87 0 00.29 1.45 3.91 3.91 0 00.83 1.24 4 4 0 001.25.84 3.82 3.82 0 001.45.28h3a2.86 2.86 0 011.89 1 2.81 2.81 0 01.71 1.9l.42 4.71 8.37-6.84a2.89 2.89 0 012-.81h13.88a3.82 3.82 0 001.45-.28 4 4 0 001.24-.84l.07-.06a4.08 4.08 0 00.77-1.18 3.86 3.86 0 00.28-1.45V6.81a3.82 3.82 0 00-.28-1.45 3.91 3.91 0 00-.83-1.24 4.17 4.17 0 00-1.25-.84 3.82 3.82 0 00-1.47-.28zM85.83 0h30.24a6.89 6.89 0 012.6.52A7.09 7.09 0 01120.88 2a7 7 0 011.48 2.21 6.89 6.89 0 01.52 2.6v30.61a6.76 6.76 0 01-1.88 4.72l-.08.09a7.09 7.09 0 01-2.21 1.48 6.89 6.89 0 01-2.6.52h-13.86l-10.62 8.62a1.52 1.52 0 01-.9.4 1.5 1.5 0 01-1.62-1.36l-.67-7.66h-2.61a6.89 6.89 0 01-2.6-.52A6.85 6.85 0 0179.54 40a6.7 6.7 0 01-.52-2.6V6.81a6.7 6.7 0 01.52-2.6A6.82 6.82 0 0185.83 0zm14.55 35.65a3.39 3.39 0 01-2.47-1 3.31 3.31 0 01-1-2.47 3.23 3.23 0 011-2.42 3.45 3.45 0 014.88 0 3.29 3.29 0 011.07 2.42 3.37 3.37 0 01-.51 1.76 3.79 3.79 0 01-1.27 1.25 3.27 3.27 0 01-1.7.47z"/></svg><svg viewBox="0 0 30 31" id="insta" xmlns="http://www.w3.org/2000/svg"><g clip-path="url(#gclip0_249_164)"><path d="M29.97 9.07c-.07-1.594-.327-2.69-.697-3.64a7.322 7.322 0 00-1.734-2.66 7.383 7.383 0 00-2.655-1.729c-.955-.37-2.046-.627-3.64-.697C19.64.268 19.13.25 15.056.25c-4.073 0-4.583.018-6.183.088-1.594.07-2.69.328-3.64.697a7.32 7.32 0 00-2.66 1.735 7.386 7.386 0 00-1.73 2.655C.476 6.38.218 7.47.148 9.065.07 10.67.053 11.18.053 15.252c0 4.073.017 4.583.088 6.183.07 1.594.328 2.69.697 3.64a7.398 7.398 0 001.735 2.66 7.383 7.383 0 002.655 1.729c.955.369 2.045.627 3.64.697 1.599.07 2.109.088 6.182.088s4.583-.017 6.183-.088c1.594-.07 2.69-.328 3.639-.697a7.673 7.673 0 004.39-4.39c.369-.955.627-2.045.697-3.64.07-1.6.088-2.109.088-6.182s-.006-4.583-.076-6.183zm-2.7 12.249c-.065 1.465-.311 2.256-.517 2.783a4.976 4.976 0 01-2.848 2.849c-.527.205-1.324.45-2.784.515-1.582.07-2.057.088-6.06.088-4.002 0-4.483-.017-6.06-.088-1.464-.064-2.256-.31-2.783-.515a4.617 4.617 0 01-1.723-1.12 4.665 4.665 0 01-1.12-1.723c-.205-.527-.45-1.324-.515-2.784-.07-1.582-.088-2.057-.088-6.06 0-4.002.018-4.483.088-6.06.064-1.464.31-2.255.516-2.783A4.56 4.56 0 014.5 4.698a4.657 4.657 0 011.723-1.12c.527-.204 1.324-.45 2.784-.515 1.582-.07 2.057-.088 6.06-.088 4.008 0 4.483.018 6.06.088 1.464.065 2.256.31 2.783.516.65.24 1.242.62 1.723 1.119.498.487.879 1.073 1.12 1.723.204.528.45 1.325.515 2.784.07 1.582.088 2.057.088 6.06 0 4.002-.018 4.471-.088 6.054z"/><path d="M15.056 7.546a7.709 7.709 0 00-7.707 7.706 7.709 7.709 0 007.707 7.707 7.708 7.708 0 007.706-7.707 7.708 7.708 0 00-7.706-7.706zm0 12.706a5 5 0 11.001-10 5 5 0 01-.001 10zM24.866 7.242a1.8 1.8 0 11-3.599 0 1.8 1.8 0 013.6 0z"/></g><defs><clipPath id="gclip0_249_164"><path transform="translate(0 .25)" d="M0 0h30v30H0z"/></clipPath></defs></svg><svg shape-rendering="geometricPrecision" text-rendering="geometricPrecision" image-rendering="optimizeQuality" fill-rule="evenodd" clip-rule="evenodd" viewBox="0 0 500 511.61" id="link" xmlns="http://www.w3.org/2000/svg"><path fill-rule="nonzero" d="M265.96 363.22l15.5-101.27c-45.53 4.53-96.07 15.77-138.72 45.89-47.72 33.69-86.32 91.71-98.25 191.8-.87 7.43-7.62 12.75-15.06 11.87-5.73-.68-10.21-4.86-11.55-10.14C7 468.76 1.42 437.95.25 409.03c-3.27-79.4 26.39-144.22 70.18-193.61 43.36-48.92 100.66-82.64 153.32-100.33 20.18-6.8 39.79-11.27 57.77-13.36L266.08 15.9c-1.32-7.34 3.57-14.38 10.91-15.69 4.07-.72 8.04.46 11 2.9l207.1 171.3c5.76 4.77 6.57 13.33 1.8 19.08l-1.54 1.59-207.06 180.39c-5.64 4.92-14.22 4.32-19.14-1.32a13.529 13.529 0 01-3.19-10.93z"/></svg><svg viewBox="0 0 455 333" id="list" xmlns="http://www.w3.org/2000/svg"><path d="M34.052 5.948C15.249 5.948 0 21.196 0 39.999c0 18.803 15.249 34.052 34.052 34.052 18.803 0 34.052-15.25 34.052-34.052 0-18.803-15.249-34.051-34.052-34.051zM145.499 80h268.604c22.092 0 40-17.908 40-40s-17.908-40-40-40H145.499c-22.092 0-40 17.908-40 40s17.908 40 40 40zM34.052 132.008C15.249 132.008 0 147.256 0 166.059c0 18.803 15.249 34.052 34.052 34.052 18.803 0 34.052-15.249 34.052-34.052 0-18.803-15.249-34.051-34.052-34.051zM414.104 126.06H145.499c-22.092 0-40 17.908-40 40s17.908 40 40 40h268.604c22.092 0 40-17.908 40-40s-17.908-40-39.999-40zM34.052 258.068C15.249 258.068 0 273.316 0 292.119c0 18.803 15.249 34.052 34.052 34.052 18.803 0 34.052-15.249 34.052-34.052 0-18.803-15.249-34.051-34.052-34.051zM414.104 252.119H145.499c-22.092 0-40 17.908-40 40s17.908 40 40 40h268.604c22.092 0 40-17.908 40-40s-17.908-40-39.999-40z"/></svg><svg data-name="Layer 1" viewBox="0 0 111.93 122.88" id="mail" xmlns="http://www.w3.org/2000/svg"><path d="M46.4 63.92a35.1 35.1 0 00.34 9.16 10 10 0 002.62 5.48 6.61 6.61 0 004.78 1.81 7.44 7.44 0 003.14-.88A10.57 10.57 0 0061 75.81a19.82 19.82 0 002.3-5.07l2.5-29.08a16.5 16.5 0 00-3.38-.35A13 13 0 0053.94 44a16.89 16.89 0 00-5 7.67 56.76 56.76 0 00-2.55 12.3zm19.17 21.93a21.54 21.54 0 01-3.47 3.59A20.88 20.88 0 0148.52 94a17.75 17.75 0 01-11.17-3.7 21.8 21.8 0 01-7.08-10.49 38.29 38.29 0 01-1.45-15.89 54.16 54.16 0 015.83-19.27A34.64 34.64 0 0145.84 32 26.88 26.88 0 0161 27.5q8 0 12.5 2.24a90.13 90.13 0 018.71 5L78.87 74a10.33 10.33 0 000 3.75 5 5 0 001.27 2.37 4.78 4.78 0 002.07 1.26 8.26 8.26 0 009-2.91 24.65 24.65 0 004.58-8.94 47.2 47.2 0 002-12.72q.64-13.14-3.32-23.2a32.2 32.2 0 00-12.73-15.7Q73 12.22 59.17 12.23q-13.31 0-22.83 6.77a45 45 0 00-14.89 18.25 69 69 0 00-6 25.68 66.26 66.26 0 001.89 20.53 35.45 35.45 0 007.5 14.37 31 31 0 0012.72 8.46A50.83 50.83 0 0055 109.07a58.88 58.88 0 0011.73-1.22A59.39 59.39 0 0076.88 105l2.58 12a34.27 34.27 0 01-11.6 4.44 63.74 63.74 0 01-13.13 1.45q-17.91 0-30.4-6.63a42.56 42.56 0 01-18.75-20Q-.65 82.95.08 62.93a79.48 79.48 0 014.92-25 62.41 62.41 0 0112.07-20A53.6 53.6 0 0135.5 4.72 58.79 58.79 0 0159.42 0q17.4 0 29.35 7.11a44.29 44.29 0 0117.9 19.72q5.88 12.62 5.19 29.15a63.42 63.42 0 01-2.1 14.02 41.49 41.49 0 01-5.44 12.32 27.89 27.89 0 01-9.23 8.73 26.68 26.68 0 01-13.45 3.25 18.56 18.56 0 01-13.76-5.51 16.18 16.18 0 01-2.31-3z"/></svg><svg viewBox="0 0 30 31" id="phone" xmlns="http://www.w3.org/2000/svg"><g clip-path="url(#kclip0_256_207)"><path d="M29.143 21.45l-6.563-2.812a1.407 1.407 0 00-1.64.404l-2.906 3.551A21.718 21.718 0 017.65 12.211l3.551-2.906a1.402 1.402 0 00.404-1.64L8.794 1.101A1.416 1.416 0 007.183.287L1.089 1.693a1.406 1.406 0 00-1.09 1.37c0 15.03 12.182 27.188 27.187 27.188a1.406 1.406 0 001.372-1.09l1.406-6.093a1.424 1.424 0 00-.821-1.617z"/></g><defs><clipPath id="kclip0_256_207"><path transform="translate(-.001 .252)" d="M0 0h30v30H0z"/></clipPath></defs></svg><svg viewBox="0 0 30 31" id="pinter" xmlns="http://www.w3.org/2000/svg"><g clip-path="url(#lclip0_249_170)"><path d="M15.408.25C7.184.251 2.813 5.52 2.813 11.265c0 2.664 1.488 5.988 3.872 7.041.68.306.59-.067 1.175-2.305a.531.531 0 00-.128-.521c-3.407-3.941-.665-12.044 7.19-12.044 11.366 0 9.242 15.728 1.977 15.728-1.873 0-3.268-1.47-2.827-3.289.536-2.166 1.583-4.495 1.583-6.056 0-3.935-5.862-3.352-5.862 1.862 0 1.612.57 2.699.57 2.699S8.476 22 8.126 23.424c-.592 2.41.08 6.311.139 6.647.036.185.244.244.36.091.186-.243 2.466-3.496 3.105-5.847.232-.856 1.186-4.331 1.186-4.331.629 1.135 2.441 2.085 4.373 2.085 5.745 0 9.897-5.05 9.897-11.316C27.166 4.744 22.025.25 15.408.25z"/></g><defs><clipPath id="lclip0_249_170"><path transform="translate(0 .25)" d="M0 0h30v30H0z"/></clipPath></defs></svg><svg viewBox="0 0 30 31" id="telega" xmlns="http://www.w3.org/2000/svg"><g clip-path="url(#mclip0_249_168)"><path d="M11.771 19.2l-.496 6.98c.71 0 1.018-.305 1.386-.67l3.33-3.182 6.897 5.051c1.265.705 2.156.334 2.497-1.164L29.913 5h.001c.401-1.87-.676-2.602-1.909-2.143L1.393 13.045c-1.817.705-1.789 1.718-.309 2.177l6.804 2.116 15.804-9.889c.743-.492 1.42-.22.863.273L11.771 19.2z"/></g><defs><clipPath id="mclip0_249_168"><path transform="translate(0 .225)" d="M0 0h30v30H0z"/></clipPath></defs></svg><svg viewBox="0 0 490 490" id="vi" xmlns="http://www.w3.org/2000/svg"><path d="M487.491 81.312L420.967 3.645A10.408 10.408 0 00413.051 0H168.763a10.422 10.422 0 00-10.217 8.358L90.118 346.862H48.88C21.472 346.862 0 378.301 0 418.436 0 458.56 21.472 490 48.88 490h273.615c40.821 0 77.046-31.491 88.098-76.583l79.108-322.845a10.413 10.413 0 00-2.21-9.26zm-30.575-3.645h-49.608l11.036-45.036 38.572 45.036zm-174.31 391.482H48.88c-13.256 0-28.029-20.831-28.029-50.713 0-29.892 14.773-50.722 28.029-50.722h233.727c-8.344 12.868-13.436 30.714-13.436 50.722-.001 20.003 5.091 37.845 13.435 50.713zm107.736-60.701c-8.755 35.736-36.657 60.701-67.847 60.701h-6.705c-10.715 0-22.506-16.097-25.198-40.287h61.388c5.758 0 10.426-4.663 10.426-10.426 0-40.134-20.475-71.574-46.615-71.574H111.387L177.29 20.851h222.474l-15.867 64.762c-1.917 6.566 3.543 12.905 10.125 12.905h72.266l-75.946 309.93zm-99.751-.438c2.693-24.201 14.483-40.297 25.198-40.297 10.711 0 22.501 16.096 25.193 40.297h-50.391z"/></svg><svg viewBox="0 0 30 19" id="vk" xmlns="http://www.w3.org/2000/svg"><path d="M24.894 10.927c-.485-.613-.346-.885 0-1.433.006-.006 4.01-5.539 4.422-7.415l.003-.001c.205-.684 0-1.186-.991-1.186h-3.28c-.835 0-1.22.43-1.427.913 0 0-1.67 3.998-4.032 6.59-.763.748-1.115.988-1.531.988-.206 0-.524-.24-.524-.924V2.078c0-.82-.234-1.186-.925-1.186H11.45c-.524 0-.835.382-.835.738 0 .778 1.181.957 1.304 3.144V9.52c0 1.04-.189 1.232-.607 1.232-1.116 0-3.822-4.014-5.426-8.608-.323-.891-.64-1.251-1.48-1.251H1.124C.189.893 0 1.324 0 1.807c0 .852 1.115 5.09 5.185 10.69 2.713 3.823 6.532 5.895 10.008 5.895 2.088 0 2.343-.46 2.343-1.252 0-3.652-.189-3.997.858-3.997.485 0 1.32.24 3.27 2.084 2.228 2.186 2.595 3.165 3.842 3.165h3.28c.935 0 1.409-.46 1.136-1.368-.623-1.909-4.838-5.835-5.028-6.097z"/></svg><svg viewBox="0 0 297 297" id="wp" xmlns="http://www.w3.org/2000/svg"><path d="M108.817 20.752C100.762 9.379 81.164 1.934 56.405 1.934 23.722 1.934 0 14.897 0 32.757v230.612c0 18.07 24.249 31.697 56.405 31.697 24.426 0 44.275-7.868 52.412-19.569V20.752zM63.144 245.649h-1.248v1.248a6.988 6.988 0 11-13.976 0v-1.248h-1.248a6.988 6.988 0 110-13.976h1.248v-1.248a6.988 6.988 0 1113.976 0v1.248h1.248a6.988 6.988 0 110 13.976zm0-61.813h-1.248v1.248a6.988 6.988 0 11-13.976 0v-1.248h-1.248a6.988 6.988 0 110-13.976h1.248v-1.248a6.988 6.988 0 1113.976 0v1.248h1.248a6.988 6.988 0 110 13.976zm0-61.812h-1.248v1.248a6.988 6.988 0 11-13.976 0v-1.248h-1.248a6.988 6.988 0 110-13.976h1.248V106.8a6.988 6.988 0 1113.976 0v1.248h1.248a6.988 6.988 0 110 13.976zm0-61.813h-1.248v1.248a6.988 6.988 0 11-13.976 0v-1.248h-1.248a6.988 6.988 0 110-13.976h1.248v-1.248a6.988 6.988 0 1113.976 0v1.248h1.248a6.988 6.988 0 110 13.976zM287.017 22.774H122.793v250.578h164.224c5.513 0 9.983-4.47 9.983-9.983V32.757c0-5.513-4.47-9.983-9.983-9.983zm-98.556 189.93h-1.248v1.248a6.988 6.988 0 11-13.976 0v-1.248h-1.248a6.988 6.988 0 110-13.976h1.248v-1.248a6.988 6.988 0 1113.976 0v1.248h1.248a6.988 6.988 0 110 13.976zm0-65.889h-1.248v1.248a6.988 6.988 0 11-13.976 0v-1.248h-1.248a6.988 6.988 0 110-13.976h1.248v-1.248a6.988 6.988 0 1113.976 0v1.248h1.248a6.988 6.988 0 110 13.976zm0-65.889h-1.248v1.248a6.988 6.988 0 11-13.976 0v-1.248h-1.248a6.988 6.988 0 110-13.976h1.248v-1.248a6.988 6.988 0 1113.976 0v1.248h1.248a6.988 6.988 0 110 13.976zm57.652 148.251h-1.248v1.248a6.988 6.988 0 11-13.976 0v-1.248h-1.248a6.988 6.988 0 110-13.976h1.248v-1.248a6.988 6.988 0 1113.976 0v1.248h1.248a6.988 6.988 0 110 13.976zm0-65.889h-1.248v1.248a6.988 6.988 0 11-13.976 0v-1.248h-1.248a6.988 6.988 0 110-13.976h1.248v-1.248a6.988 6.988 0 1113.976 0v1.248h1.248a6.988 6.988 0 110 13.976zm0-65.889h-1.248v1.248a6.988 6.988 0 11-13.976 0v-1.248h-1.248a6.988 6.988 0 110-13.976h1.248v-1.248a6.988 6.988 0 1113.976 0v1.248h1.248a6.988 6.988 0 110 13.976z"/></svg></svg>